<?xml version="1.0" encoding="utf-8" standalone="yes"?>
<!DOCTYPE svg PUBLIC "-//W3C//DTD SVG 1.1//EN" "http://www.w3.org/Graphics/SVG/1.1/DTD/svg11.dtd">
<svg width="1322" height="722" viewBox="0 0 1322 722" style="fill:none;stroke:none;fill-rule:evenodd;clip-rule:evenodd;stroke-linecap:round;stroke-linejoin:round;stroke-miterlimit:1.5;" version="1.1" xmlns="http://www.w3.org/2000/svg" xmlns:xlink="http://www.w3.org/1999/xlink"><style class="text-font-style fontImports" data-font-family="Roboto">@import url('https://fonts.googleapis.com/css2?family=Roboto:wght@400;700&amp;display=block');</style><g id="items" style="isolation: isolate"><g id="blend" style="mix-blend-mode: normal"><g id="g-root-0.g-0_fr_9ql11qqs1s2-fill" data-item-order="-793667" transform="translate(63.21098327636719, 315)"></g><g id="g-root-1.g-1_1_fr_1cuwr111qqs0ss-fill" data-item-order="-793650" transform="translate(57, 258)"></g><g id="g-root-2.g-2_fr_zjg8np1qqs2dq-fill" data-item-order="-793638" transform="translate(225, 333)"></g><g id="g-root-3.g-3_1_fr_qofphx1qqs0sg-fill" data-item-order="-793626" transform="translate(393, 258)"></g><g id="g-root-4.g-4_fr_dcz74l1qqs2de-fill" data-item-order="-793614" transform="translate(561, 333)"></g><g id="g-root-5.g-5_2_fr_1q7m7kl1qqs1e4-fill" data-item-order="-793602" transform="translate(729, 258)"></g><g id="g-root-6.g-6_fr_1cws6ad1qqrzta-fill" data-item-order="-793590" transform="translate(897, 333)"></g><g id="g-root-7.g-7_fr_18gyo5x1qqs0lk-fill" data-item-order="-793578" transform="translate(1065, 258)"></g><g id="g-root--1.line_fr_141561h1qqs1du-fill" data-item-order="-793565" transform="translate(147, 276)"></g><g id="g-root--1.line_1_fr_v5i5sl1qqs26k-fill" data-item-order="-793561" transform="translate(483, 276)"></g><g id="g-root--1.line_2_fr_qqb4r91qqrzt2-fill" data-item-order="-793557" transform="translate(819, 276)"></g><g id="g-root--1.line_3_fr_mahmmt1qqs0lc-fill" data-item-order="-793553" transform="translate(1155, 276)"></g><g id="g-root--1.line_4_fr_deumdx1qqs1e2-fill" data-item-order="-793549" transform="translate(315, 465)"></g><g id="g-root--1.line_5_fr_deumdx1qqs1e4-fill" data-item-order="-793545" transform="translate(651, 465)"></g><g id="g-root--1.line_6_fr_8z149h1qqs26e-fill" data-item-order="-793541" transform="translate(987, 465)"></g><g id="g-root-tx_usarummo_1449jh11qqs2ko-fill" data-item-order="0" transform="translate(1053, 207)"><g id="tx_usarummo_1449jh11qqs2ko-fill" stroke="none" fill="#f4f4f4"><g><text style="font: 15px Roboto, sans-serif; white-space: pre;" font-size="15px" font-family="Roboto, sans-serif"><tspan x="12.2" y="27.6" dominant-baseline="ideographic">Usar um modelo de árvore de </tspan><tspan x="21.42" y="45.6" dominant-baseline="ideographic">decisão para treinar dados</tspan></text></g></g></g><g id="g-root-tx_classifi_1uqk34l1qqs2km-fill" data-item-order="0" transform="translate(717, 207)"><g id="tx_classifi_1uqk34l1qqs2km-fill" stroke="none" fill="#f4f4f4"><g><text style="font: 15px Roboto, sans-serif; white-space: pre;" font-size="15px" font-family="Roboto, sans-serif"><tspan x="11.89" y="27.6" dominant-baseline="ideographic">Classificar CNPJ em décimos </tspan><tspan x="30.93" y="45.6" dominant-baseline="ideographic">com base em variações</tspan></text></g></g></g><g id="g-root-tx_selecion_1430lat1qqs0ei-fill" data-item-order="0" transform="translate(39, 207)"><g id="tx_selecion_1430lat1qqs0ei-fill" stroke="none" fill="#f4f4f4"><g><text style="font: 15px Roboto, sans-serif; white-space: pre;" font-size="15px" font-family="Roboto, sans-serif"><tspan x="14.24" y="27.6" dominant-baseline="ideographic">Selecionar 10% dos CNPJ para </tspan><tspan x="84.24" y="45.6" dominant-baseline="ideographic">validação</tspan></text></g></g></g><g id="g-root-tx_classifi_dgq1n91qqs0ek-fill" data-item-order="0" transform="translate(375, 183)"><g id="tx_classifi_dgq1n91qqs0ek-fill" stroke="none" fill="#f4f4f4"><g><text style="font: 15px Roboto, sans-serif; white-space: pre;" font-size="15px" font-family="Roboto, sans-serif"><tspan x="13.82" y="30.6" dominant-baseline="ideographic">Classificar CNPJ com base em </tspan><tspan x="34.32" y="48.6" dominant-baseline="ideographic">segmentos financeiros e </tspan><tspan x="85.2" y="66.6" dominant-baseline="ideographic">personas</tspan></text></g></g></g><g id="g-root-tx_aplicarm_1hfq1ud1qqs0zr-fill" data-item-order="0" transform="translate(1065, 147)"><g id="tx_aplicarm_1hfq1ud1qqs0zr-fill" stroke="none" fill="#f4f4f4"><g><text style="font: bold 20px Roboto, sans-serif; white-space: pre;" font-weight="bold" font-size="20px" font-family="Roboto, sans-serif"><tspan x="16.36" y="34" dominant-baseline="ideographic">Aplicar Modelo de </tspan><tspan x="15.81" y="58" dominant-baseline="ideographic">Árvore de Decisão</tspan></text></g></g></g><g id="g-root-tx_classifi_59j9x1qqs1zh-fill" data-item-order="0" transform="translate(723, 147)"><g id="tx_classifi_59j9x1qqs1zh-fill" stroke="none" fill="#f4f4f4"><g><text style="font: bold 20px Roboto, sans-serif; white-space: pre;" font-weight="bold" font-size="20px" font-family="Roboto, sans-serif"><tspan x="11.99" y="34" dominant-baseline="ideographic">Classificar CNPJ em </tspan><tspan x="64.31" y="58" dominant-baseline="ideographic">Décimos</tspan></text></g></g></g><g id="g-root-2_qtfi6t1qqs0zt-fill" data-item-order="0" transform="translate(117, 369)"></g><g id="g-root-next_mfhihh1qqw9hj-fill" data-item-order="0" transform="translate(285, 369)"></g><g id="g-root-stru_zk2swl1qqxnnk-fill" data-item-order="0" transform="translate(453, 369)"></g><g id="g-root-grap_8x5s5x1qr62a5-fill" data-item-order="0" transform="translate(621, 369)"></g><g id="g-root-decr_v8mmdx1qr62h9-fill" data-item-order="0" transform="translate(789, 369)"></g><g id="g-root-lift_140is451qr7hu2-fill" data-item-order="0" transform="translate(957, 369)"></g><g id="g-root-3_73qad1r0yo0a-fill" data-item-order="0" transform="translate(1125, 369)"></g><g id="g-root-tx_selecion_1q9hmtx1qqs16p-fill" data-item-order="0" transform="translate(39, 147)"><g id="tx_selecion_1q9hmtx1qqs16p-fill" stroke="none" fill="#f4f4f4"><g><text style="font: bold 20px Roboto, sans-serif; white-space: pre;" font-weight="bold" font-size="20px" font-family="Roboto, sans-serif"><tspan x="14.01" y="34" dominant-baseline="ideographic">Selecionar Amostra de </tspan><tspan x="91.27" y="58" dominant-baseline="ideographic">CNPJ</tspan></text></g></g></g><g id="g-root-tx_classifi_qrk2xh1qqs1zf-fill" data-item-order="0" transform="translate(381, 123)"><g id="tx_classifi_qrk2xh1qqs1zf-fill" stroke="none" fill="#f4f4f4"><g><text style="font: bold 20px Roboto, sans-serif; white-space: pre;" font-weight="bold" font-size="20px" font-family="Roboto, sans-serif"><tspan x="18.64" y="34" dominant-baseline="ideographic">Classificar CNPJ por </tspan><tspan x="15.6" y="58" dominant-baseline="ideographic">Segmento Financeiro</tspan></text></g></g></g><g id="g-root-tx_processo_4ju3851qqrzsw-fill" data-item-order="0" transform="translate(459, 39)"><g id="tx_processo_4ju3851qqrzsw-fill" stroke="none" fill="#f4f4f4"><g><text style="font: 20px Roboto, sans-serif; white-space: pre;" font-size="20px" font-family="Roboto, sans-serif"><tspan x="16.86" y="34" dominant-baseline="ideographic">Processo de Validação e Análise de CNPJ</tspan></text></g></g></g><g id="g-root-tx_avaliare_1uo0yj91r19wr2-fill" data-item-order="0" transform="translate(879, 615)"><g id="tx_avaliare_1uo0yj91r19wr2-fill" stroke="none" fill="#f4f4f4"><g><text style="font: 15px Roboto, sans-serif; white-space: pre;" font-size="15px" font-family="Roboto, sans-serif"><tspan x="14.81" y="27.6" dominant-baseline="ideographic">Avaliar e classificar mudanças </tspan><tspan x="43.56" y="45.6" dominant-baseline="ideographic">no status G dos CNPJ</tspan></text></g></g></g><g id="g-root-tx_avaliarv_1cvhzv91r19wy3-fill" data-item-order="0" transform="translate(561, 555)"><g id="tx_avaliarv_1cvhzv91r19wy3-fill" stroke="none" fill="#f4f4f4"><g><text style="font: bold 20px Roboto, sans-serif; white-space: pre;" font-weight="bold" font-size="20px" font-family="Roboto, sans-serif"><tspan x="24.96" y="34" dominant-baseline="ideographic">Avaliar Variáveis </tspan><tspan x="16.44" y="58" dominant-baseline="ideographic">Dentro de Clusters</tspan></text></g></g></g><g id="g-root-tx_avaliarm_hu0f6d1r19ukl-fill" data-item-order="0" transform="translate(885, 555)"><g id="tx_avaliarm_hu0f6d1r19ukl-fill" stroke="none" fill="#f4f4f4"><g><text style="font: bold 20px Roboto, sans-serif; white-space: pre;" font-weight="bold" font-size="20px" font-family="Roboto, sans-serif"><tspan x="15.74" y="34" dominant-baseline="ideographic">Avaliar Mudanças de </tspan><tspan x="71.19" y="58" dominant-baseline="ideographic">Status G</tspan></text></g></g></g><g id="g-root-tx_identifi_1hgid1r19urm-fill" data-item-order="0" transform="translate(219, 615)"><g id="tx_identifi_1hgid1r19urm-fill" stroke="none" fill="#f4f4f4"><g><text style="font: 15px Roboto, sans-serif; white-space: pre;" font-size="15px" font-family="Roboto, sans-serif"><tspan x="22.82" y="27.6" dominant-baseline="ideographic">Identificar e excluir CNPJ </tspan><tspan x="17.68" y="45.6" dominant-baseline="ideographic">recém-fundados e inativos</tspan></text></g></g></g><g id="g-root-tx_analisar_zknyl11r19vd8-fill" data-item-order="0" transform="translate(549, 615)"><g id="tx_analisar_zknyl11r19vd8-fill" stroke="none" fill="#f4f4f4"><g><text style="font: 15px Roboto, sans-serif; white-space: pre;" font-size="15px" font-family="Roboto, sans-serif"><tspan x="40.66" y="27.6" dominant-baseline="ideographic">Analisar variações de </tspan><tspan x="14.95" y="45.6" dominant-baseline="ideographic">faturamento, cash-in e status</tspan></text></g></g></g><g id="g-root-tx_marcarcn_dcbhsl1r19wch-fill" data-item-order="0" transform="translate(213, 555)"><g id="tx_marcarcn_dcbhsl1r19wch-fill" stroke="none" fill="#f4f4f4"><g><text style="font: bold 20px Roboto, sans-serif; white-space: pre;" font-weight="bold" font-size="20px" font-family="Roboto, sans-serif"><tspan x="15.4" y="34" dominant-baseline="ideographic">Marcar CNPJ Recém-</tspan><tspan x="21.96" y="58" dominant-baseline="ideographic">Fundados e Inativos</tspan></text></g></g></g><g id="g-root-0.g-0_fr_9ql11qqs1s2-stroke" data-item-order="-793667" transform="translate(63.21098327636719, 315)"><g id="0.g-0_fr_9ql11qqs1s2-stroke" fill="none" stroke-linecap="round" stroke-linejoin="round" stroke-miterlimit="4" stroke="#d3d3d3" stroke-width="2" stroke-dasharray="5.0, 7.0"><g><path d="M 177.578001 100C 174.501601 143.5917 138.163501 178 93.789001 178C 49.414501 178 13.076501 143.5917 10.000001 100M 345.578 88C 342.5016 44.4083 306.1635 10 261.789 10C 217.4145 10 181.0765 44.4083 178 88M 513.578016 100C 510.501616 143.5917 474.163516 178 429.789016 178C 385.414516 178 349.076516 143.5917 346.000016 100M 681.578016 88C 678.501616 44.4083 642.163516 10 597.789016 10C 553.414516 10 517.076516 44.4083 514.000016 88M 849.577955 100C 846.501555 143.5917 810.163455 178 765.788955 178C 721.414455 178 685.076455 143.5917 681.999955 100M 1017.577955 88C 1014.501555 44.4083 978.163455 10 933.788955 10C 889.414455 10 853.076455 44.4083 849.999955 88M 1185.577955 100C 1182.501555 143.5917 1146.163455 178 1101.788955 178C 1057.414455 178 1021.076455 143.5917 1017.999955 100"></path></g></g></g><g id="g-root-1.g-1_1_fr_1cuwr111qqs0ss-stroke" data-item-order="-793650" transform="translate(57, 258)"><g id="1.g-1_1_fr_1cuwr111qqs0ss-stroke" fill="none" stroke-linecap="round" stroke-linejoin="round" stroke-miterlimit="4" stroke="#4f91fc" stroke-width="2"><g><path d="M 34 151C 34.000002 187.450795 63.549208 217.000002 100.000002 217.000002C 136.450795 217.000002 166.000002 187.450795 166.000002 151.000002C 166.000002 114.549208 136.450795 85.000002 100.000002 85.000002C 63.549208 85.000002 34.000002 114.549208 34.000002 151.000002M 10 151C 10 154.313709 12.686292 157 16 157C 19.313709 157 22 154.313709 22 151C 22 147.686292 19.313709 145 16 145C 12.686292 145 10 147.686292 10 151"></path></g></g><g id="1.g-1_1_fr_1cuwr111qqs0ss-stroke" fill="none" stroke-linecap="round" stroke-linejoin="round" stroke-miterlimit="4" stroke="#4f91fc" stroke-width="2"><g><path d="M 109 19C 109 23.9706 104.9706 28 100 28C 95.0294 28 91 23.9706 91 19C 91 14.0294 95.0294 10 100 10C 104.9706 10 109 14.0294 109 19Z"></path></g></g></g><g id="g-root-2.g-2_fr_zjg8np1qqs2dq-stroke" data-item-order="-793638" transform="translate(225, 333)"><g id="2.g-2_fr_zjg8np1qqs2dq-stroke" fill="none" stroke-linecap="round" stroke-linejoin="round" stroke-miterlimit="4" stroke="#1ac3fb" stroke-width="2"><g><path d="M 34 76C 34.000002 112.450795 63.549208 142.000002 100.000002 142.000002C 136.450795 142.000002 166.000002 112.450795 166.000002 76.000002C 166.000002 39.549208 136.450795 10.000002 100.000002 10.000002C 63.549208 10.000002 34.000002 39.549208 34.000002 76.000002M 10 76C 10 79.313709 12.686292 82 16 82C 19.313709 82 22 79.313709 22 76C 22 72.686292 19.313709 70 16 70C 12.686292 70 10 72.686292 10 76"></path></g></g><g id="2.g-2_fr_zjg8np1qqs2dq-stroke" fill="none" stroke-linecap="round" stroke-linejoin="round" stroke-miterlimit="4" stroke="#1ac3fb" stroke-width="2"><g><path d="M 109 208C 109 212.9706 104.9706 217 100 217C 95.0294 217 91 212.9706 91 208C 91 203.0294 95.0294 199 100 199C 104.9706 199 109 203.0294 109 208Z"></path></g></g></g><g id="g-root-3.g-3_1_fr_qofphx1qqs0sg-stroke" data-item-order="-793626" transform="translate(393, 258)"><g id="3.g-3_1_fr_qofphx1qqs0sg-stroke" fill="none" stroke-linecap="round" stroke-linejoin="round" stroke-miterlimit="4" stroke="#43dd93" stroke-width="2"><g><path d="M 34 151C 34.000002 187.450795 63.549208 217.000002 100.000002 217.000002C 136.450795 217.000002 166.000002 187.450795 166.000002 151.000002C 166.000002 114.549208 136.450795 85.000002 100.000002 85.000002C 63.549208 85.000002 34.000002 114.549208 34.000002 151.000002M 10 151C 10 154.313709 12.686292 157 16 157C 19.313709 157 22 154.313709 22 151C 22 147.686292 19.313709 145 16 145C 12.686292 145 10 147.686292 10 151"></path></g></g><g id="3.g-3_1_fr_qofphx1qqs0sg-stroke" fill="none" stroke-linecap="round" stroke-linejoin="round" stroke-miterlimit="4" stroke="#43dd93" stroke-width="2"><g><path d="M 109 19C 109 23.9706 104.9706 28 100 28C 95.0294 28 91 23.9706 91 19C 91 14.0294 95.0294 10 100 10C 104.9706 10 109 14.0294 109 19Z"></path></g></g></g><g id="g-root-4.g-4_fr_dcz74l1qqs2de-stroke" data-item-order="-793614" transform="translate(561, 333)"><g id="4.g-4_fr_dcz74l1qqs2de-stroke" fill="none" stroke-linecap="round" stroke-linejoin="round" stroke-miterlimit="4" stroke="#a6da37" stroke-width="2"><g><path d="M 34 76C 34.000002 112.450795 63.549208 142.000002 100.000002 142.000002C 136.450795 142.000002 166.000002 112.450795 166.000002 76.000002C 166.000002 39.549208 136.450795 10.000002 100.000002 10.000002C 63.549208 10.000002 34.000002 39.549208 34.000002 76.000002M 10 76C 10 79.313709 12.686292 82 16 82C 19.313709 82 22 79.313709 22 76C 22 72.686292 19.313709 70 16 70C 12.686292 70 10 72.686292 10 76"></path></g></g><g id="4.g-4_fr_dcz74l1qqs2de-stroke" fill="none" stroke-linecap="round" stroke-linejoin="round" stroke-miterlimit="4" stroke="#a6da37" stroke-width="2"><g><path d="M 109 208C 109 212.9706 104.9706 217 100 217C 95.0294 217 91 212.9706 91 208C 91 203.0294 95.0294 199 100 199C 104.9706 199 109 203.0294 109 208Z"></path></g></g></g><g id="g-root-5.g-5_2_fr_1q7m7kl1qqs1e4-stroke" data-item-order="-793602" transform="translate(729, 258)"><g id="5.g-5_2_fr_1q7m7kl1qqs1e4-stroke" fill="none" stroke-linecap="round" stroke-linejoin="round" stroke-miterlimit="4" stroke="#ffe711" stroke-width="2"><g><path d="M 34 151C 34.000002 187.450795 63.549208 217.000002 100.000002 217.000002C 136.450795 217.000002 166.000002 187.450795 166.000002 151.000002C 166.000002 114.549208 136.450795 85.000002 100.000002 85.000002C 63.549208 85.000002 34.000002 114.549208 34.000002 151.000002M 10 151C 10 154.313709 12.686292 157 16 157C 19.313709 157 22 154.313709 22 151C 22 147.686292 19.313709 145 16 145C 12.686292 145 10 147.686292 10 151"></path></g></g><g id="5.g-5_2_fr_1q7m7kl1qqs1e4-stroke" fill="none" stroke-linecap="round" stroke-linejoin="round" stroke-miterlimit="4" stroke="#ffe711" stroke-width="2"><g><path d="M 109 19C 109 23.9706 104.9706 28 100 28C 95.0294 28 91 23.9706 91 19C 91 14.0294 95.0294 10 100 10C 104.9706 10 109 14.0294 109 19Z"></path></g></g></g><g id="g-root-6.g-6_fr_1cws6ad1qqrzta-stroke" data-item-order="-793590" transform="translate(897, 333)"><g id="6.g-6_fr_1cws6ad1qqrzta-stroke" fill="none" stroke-linecap="round" stroke-linejoin="round" stroke-miterlimit="4" stroke="#f79438" stroke-width="2"><g><path d="M 34 76C 34.000002 112.450795 63.549208 142.000002 100.000002 142.000002C 136.450795 142.000002 166.000002 112.450795 166.000002 76.000002C 166.000002 39.549208 136.450795 10.000002 100.000002 10.000002C 63.549208 10.000002 34.000002 39.549208 34.000002 76.000002M 10 76C 10 79.313709 12.686292 82 16 82C 19.313709 82 22 79.313709 22 76C 22 72.686292 19.313709 70 16 70C 12.686292 70 10 72.686292 10 76"></path></g></g><g id="6.g-6_fr_1cws6ad1qqrzta-stroke" fill="none" stroke-linecap="round" stroke-linejoin="round" stroke-miterlimit="4" stroke="#f79438" stroke-width="2"><g><path d="M 109 208C 109 212.9706 104.9706 217 100 217C 95.0294 217 91 212.9706 91 208C 91 203.0294 95.0294 199 100 199C 104.9706 199 109 203.0294 109 208Z"></path></g></g></g><g id="g-root-7.g-7_fr_18gyo5x1qqs0lk-stroke" data-item-order="-793578" transform="translate(1065, 258)"><g id="7.g-7_fr_18gyo5x1qqs0lk-stroke" fill="none" stroke-linecap="round" stroke-linejoin="round" stroke-miterlimit="4" stroke="#fb6762" stroke-width="2"><g><path d="M 34 151C 34.000002 187.450795 63.549208 217.000002 100.000002 217.000002C 136.450795 217.000002 166.000002 187.450795 166.000002 151.000002C 166.000002 114.549208 136.450795 85.000002 100.000002 85.000002C 63.549208 85.000002 34.000002 114.549208 34.000002 151.000002M 10 151C 10 154.313709 12.686292 157 16 157C 19.313709 157 22 154.313709 22 151C 22 147.686292 19.313709 145 16 145C 12.686292 145 10 147.686292 10 151M 178 151C 178 154.313709 180.686292 157 184 157C 187.313709 157 190 154.313709 190 151C 190 147.686292 187.313709 145 184 145C 180.686292 145 178 147.686292 178 151"></path></g></g><g id="7.g-7_fr_18gyo5x1qqs0lk-stroke" fill="none" stroke-linecap="round" stroke-linejoin="round" stroke-miterlimit="4" stroke="#fb6762" stroke-width="2"><g><path d="M 109 19C 109 23.9706 104.9706 28 100 28C 95.0294 28 91 23.9706 91 19C 91 14.0294 95.0294 10 100 10C 104.9706 10 109 14.0294 109 19Z"></path></g></g></g><g id="g-root--1.line_fr_141561h1qqs1du-stroke" data-item-order="-793565" transform="translate(147, 276)"><g id="-1.line_fr_141561h1qqs1du-stroke" fill="none" stroke-linecap="round" stroke-linejoin="round" stroke-miterlimit="4" stroke="#f4f4f4" stroke-width="2"><g><path d="M 10 67L 10 10"></path></g></g></g><g id="g-root--1.line_1_fr_v5i5sl1qqs26k-stroke" data-item-order="-793561" transform="translate(483, 276)"><g id="-1.line_1_fr_v5i5sl1qqs26k-stroke" fill="none" stroke-linecap="round" stroke-linejoin="round" stroke-miterlimit="4" stroke="#f4f4f4" stroke-width="2"><g><path d="M 10 67L 10 10"></path></g></g></g><g id="g-root--1.line_2_fr_qqb4r91qqrzt2-stroke" data-item-order="-793557" transform="translate(819, 276)"><g id="-1.line_2_fr_qqb4r91qqrzt2-stroke" fill="none" stroke-linecap="round" stroke-linejoin="round" stroke-miterlimit="4" stroke="#f4f4f4" stroke-width="2"><g><path d="M 10 67L 10 10"></path></g></g></g><g id="g-root--1.line_3_fr_mahmmt1qqs0lc-stroke" data-item-order="-793553" transform="translate(1155, 276)"><g id="-1.line_3_fr_mahmmt1qqs0lc-stroke" fill="none" stroke-linecap="round" stroke-linejoin="round" stroke-miterlimit="4" stroke="#f4f4f4" stroke-width="2"><g><path d="M 10 67L 10 10"></path></g></g></g><g id="g-root--1.line_4_fr_deumdx1qqs1e2-stroke" data-item-order="-793549" transform="translate(315, 465)"><g id="-1.line_4_fr_deumdx1qqs1e2-stroke" fill="none" stroke-linecap="round" stroke-linejoin="round" stroke-miterlimit="4" stroke="#f4f4f4" stroke-width="2"><g><path d="M 10 67L 10 10"></path></g></g></g><g id="g-root--1.line_5_fr_deumdx1qqs1e4-stroke" data-item-order="-793545" transform="translate(651, 465)"><g id="-1.line_5_fr_deumdx1qqs1e4-stroke" fill="none" stroke-linecap="round" stroke-linejoin="round" stroke-miterlimit="4" stroke="#f4f4f4" stroke-width="2"><g><path d="M 10 67L 10 10"></path></g></g></g><g id="g-root--1.line_6_fr_8z149h1qqs26e-stroke" data-item-order="-793541" transform="translate(987, 465)"><g id="-1.line_6_fr_8z149h1qqs26e-stroke" fill="none" stroke-linecap="round" stroke-linejoin="round" stroke-miterlimit="4" stroke="#f4f4f4" stroke-width="2"><g><path d="M 10 67L 10 10"></path></g></g></g><g id="g-root-tx_usarummo_1449jh11qqs2ko-stroke" data-item-order="0" transform="translate(1053, 207)"></g><g id="g-root-tx_classifi_1uqk34l1qqs2km-stroke" data-item-order="0" transform="translate(717, 207)"></g><g id="g-root-tx_selecion_1430lat1qqs0ei-stroke" data-item-order="0" transform="translate(39, 207)"></g><g id="g-root-tx_classifi_dgq1n91qqs0ek-stroke" data-item-order="0" transform="translate(375, 183)"></g><g id="g-root-tx_aplicarm_1hfq1ud1qqs0zr-stroke" data-item-order="0" transform="translate(1065, 147)"></g><g id="g-root-tx_classifi_59j9x1qqs1zh-stroke" data-item-order="0" transform="translate(723, 147)"></g><g id="g-root-2_qtfi6t1qqs0zt-stroke" data-item-order="0" transform="translate(117, 369)"><g id="2_qtfi6t1qqs0zt-stroke" fill="none" stroke-linecap="round" stroke-linejoin="round" stroke-miterlimit="4" stroke="#4f91fc" stroke-width="2"><g><path d="M 21.875 36.250252C 27.39785 36.250252 31.875 34.45945 31.875 32.250298C 31.875 30.041176 27.39785 28.250299 21.875 28.250299C 16.35215 28.250299 11.875 30.041176 11.875 32.250298C 11.875 34.45945 16.35215 36.250252 21.875 36.250252ZM 11.875 32.249924L 11.875 48.25C 11.875 50.5 16.375 52.25 21.875 52.25C 27.375 52.25 31.875 50.5 31.875 48.25L 31.875 32.249924M 61.503502 18.43325C 65.038254 18.43325 67.903503 16.881176 67.903503 14.9666C 67.903503 13.052 65.038254 11.49992 61.503502 11.49992C 57.968998 11.49992 55.1035 13.052 55.1035 14.9666C 55.1035 16.881176 57.968998 18.43325 61.503502 18.43325ZM 55.1035 14.966725L 55.1035 24.033375C 55.1035 25.900051 58.036999 27.50005 61.503502 27.50005C 64.970253 27.50005 67.903503 25.900051 67.903503 24.033375L 67.903503 14.966725M 61.503502 39.200253C 65.038254 39.200253 67.903503 37.648003 67.903503 35.733498C 67.903503 33.818924 65.038254 32.26685 61.503502 32.26685C 57.968998 32.26685 55.1035 33.818924 55.1035 35.733498C 55.1035 37.648003 57.968998 39.200253 61.503502 39.200253ZM 55.1035 35.733749L 55.1035 44.800251C 55.1035 46.667 58.036999 48.266998 61.503502 48.266998C 64.970253 48.266998 67.903503 46.667 67.903503 44.800251L 67.903503 35.733749M 61.503502 59.43325C 65.038254 59.43325 67.903503 57.881248 67.903503 55.966499C 67.903503 54.052002 65.038254 52.5 61.503502 52.5C 57.968998 52.5 55.1035 54.052002 55.1035 55.966499C 55.1035 57.881248 57.968998 59.43325 61.503502 59.43325ZM 55.1035 55.966751L 55.1035 65.033501C 55.1035 66.900002 58.036999 68.5 61.503502 68.5C 64.970253 68.5 67.903503 66.900002 67.903503 65.033501L 67.903503 55.966751M 49.114498 19.25L 44.114498 19.25L 44.114498 60.75L 49.114498 60.75M 49.114498 40L 37.864498 40M 11.875 40.327751C 11.875 42.442249 16.199326 44.172001 21.87505 44.172001C 27.550751 44.172001 31.875074 42.442249 31.875074 40.327751"></path></g></g></g><g id="g-root-next_mfhihh1qqw9hj-stroke" data-item-order="0" transform="translate(285, 369)"><g id="next_mfhihh1qqw9hj-stroke" fill="none" stroke-linecap="round" stroke-linejoin="round" stroke-miterlimit="4" stroke="#1ac3fb" stroke-width="2"><g><path d="M 11.25 40C 11.250001 55.878185 24.121815 68.75 40 68.75C 55.878185 68.75 68.75 55.878185 68.75 40C 68.75 24.121815 55.878185 11.250001 40 11.250001C 24.121815 11.250001 11.250001 24.121815 11.250001 40M 30 52.5L 30 30L 32.5 30L 56.224998 63.724998M 48.75 30L 48.75 45"></path></g></g></g><g id="g-root-stru_zk2swl1qqxnnk-stroke" data-item-order="0" transform="translate(453, 369)"><g id="stru_zk2swl1qqxnnk-stroke" fill="none" stroke-linecap="round" stroke-linejoin="round" stroke-miterlimit="4" stroke="#43dd93" stroke-width="2"><g><path d="M 20 53.75L 20 45C 20 44.309647 20.559643 43.75 21.25 43.75L 58.75 43.75C 59.440353 43.75 60 44.309647 60 45L 60 53.75M 40.009998 36.25L 40.009998 53.75M 27.51 23.75C 27.51 30.653561 33.106441 36.25 40.009998 36.25C 46.913559 36.25 52.509998 30.653561 52.509998 23.75C 52.509998 16.846441 46.913559 11.25 40.009998 11.25C 33.106441 11.25 27.51 16.846441 27.51 23.75M 40.009998 28.75L 40.009998 31.25M 40.009998 16.25L 40.009998 18.75M 35 28.75L 42.5 28.75C 43.880714 28.75 45 27.630713 45 26.25C 45 24.869287 43.880714 23.75 42.5 23.75L 37.5 23.75C 36.119286 23.75 35 22.630713 35 21.25C 35 19.869287 36.119286 18.75 37.5 18.75L 45 18.75M 12.51 61.25C 12.51 65.392136 15.867865 68.75 20.01 68.75C 24.152136 68.75 27.51 65.392136 27.51 61.25C 27.51 57.107868 24.152136 53.75 20.01 53.75C 15.867865 53.75 12.51 57.107868 12.51 61.25M 32.509998 53.75L 47.509998 53.75L 47.509998 68.75L 32.509998 68.75ZM 60.009998 53.75L 52.509998 68.75L 67.510002 68.75L 60.009998 53.75Z"></path></g></g></g><g id="g-root-grap_8x5s5x1qr62a5-stroke" data-item-order="0" transform="translate(621, 369)"><g id="grap_8x5s5x1qr62a5-stroke" fill="none" stroke-linecap="round" stroke-linejoin="round" stroke-miterlimit="4" stroke="#a6da37" stroke-width="2"><g><path d="M 11.25 48.127502L 31.795002 48.127502M 51.267502 33.122498L 51.267502 13.122499C 51.267502 12.432144 50.707855 11.8725 50.017502 11.8725L 45.017502 11.8725C 44.327145 11.8725 43.767502 12.432144 43.767502 13.122499L 43.767502 33.122498M 36.25 33.122498L 36.25 23.122499C 36.25 22.432144 35.690353 21.872499 35 21.872499L 30 21.872499C 29.309643 21.872499 28.75 22.432144 28.75 23.122499L 28.75 48.122498M 21.25 48.127502L 21.25 33.127502C 21.25 32.437141 20.690357 31.877501 20 31.877501L 15 31.877501C 14.309644 31.877501 13.75 32.437141 13.75 33.127502L 13.75 48.127502M 38.735001 40.625L 66.25 40.625C 66.25 40.625 68.75 40.625 68.75 43.125L 68.75 65.637505C 68.75 65.637505 68.75 68.137505 66.25 68.137505L 38.735001 68.137505C 38.735001 68.137505 36.235001 68.137505 36.235001 65.637505L 36.235001 43.125C 36.235001 43.125 36.235001 40.625 38.735001 40.625M 36.235001 47.4175L 68.75 47.4175M 36.235001 54.380001L 68.75 54.380001M 36.235001 60.970001L 68.75 60.970001M 51.267502 47.420002L 51.267502 68.137497M 59.592499 47.420002L 59.592499 68.137497"></path></g></g></g><g id="g-root-decr_v8mmdx1qr62h9-stroke" data-item-order="0" transform="translate(789, 369)"><g id="decr_v8mmdx1qr62h9-stroke" fill="none" stroke-linecap="round" stroke-linejoin="round" stroke-miterlimit="4" stroke="#ffe711" stroke-width="2"><g><path d="M 15.314285 12.142857L 64.599998 34.55714M 55.385712 38.028572L 64.599998 34.55714L 61.171425 25.299999M 15.357142 35.714287L 21.785713 35.714287C 22.969181 35.714287 23.928572 36.673676 23.928572 37.857143L 23.928572 67.85714L 23.928572 67.85714L 13.214286 67.85714L 13.214286 67.85714L 13.214286 37.857143C 13.214286 36.673676 14.173676 35.714287 15.357142 35.714287ZM 36.785713 42.142857L 43.214283 42.142857C 44.397751 42.142857 45.357143 43.102245 45.357143 44.285713L 45.357143 67.85714L 45.357143 67.85714L 34.642857 67.85714L 34.642857 67.85714L 34.642857 44.285713C 34.642857 43.102245 35.602245 42.142857 36.785713 42.142857ZM 58.214283 48.571426L 64.642853 48.571426C 65.826324 48.571426 66.785713 49.530819 66.785713 50.714283L 66.785713 67.85714L 66.785713 67.85714L 56.071426 67.85714L 56.071426 67.85714L 56.071426 50.714283C 56.071426 49.530819 57.030819 48.571426 58.214283 48.571426Z"></path></g></g></g><g id="g-root-lift_140is451qr7hu2-stroke" data-item-order="0" transform="translate(957, 369)"><g id="lift_140is451qr7hu2-stroke" fill="none" stroke-linecap="round" stroke-linejoin="round" stroke-miterlimit="4" stroke="#f79438" stroke-width="2"><g><path d="M 12.142857 20.714285C 12.142857 25.448154 15.980416 29.285713 20.714285 29.285713C 25.448154 29.285713 29.285713 25.448154 29.285713 20.714285C 29.285713 15.980416 25.448154 12.142857 20.714285 12.142857C 15.980416 12.142857 12.142857 15.980416 12.142857 20.714285M 16.428572 37.857143L 25 37.857143C 27.366934 37.857143 29.285713 39.775921 29.285713 42.142857L 29.285713 55L 29.285713 55L 12.142857 55L 12.142857 55L 12.142857 42.142857C 12.142857 39.775921 14.061637 37.857143 16.428572 37.857143ZM 12.142857 55L 12.142857 67.85714M 29.285713 55L 29.285713 67.85714M 46.42857 33.571426L 57.142857 22.857143L 67.85714 33.571426M 46.42857 50.714283L 57.142857 61.42857L 67.85714 50.714283"></path></g></g></g><g id="g-root-3_73qad1r0yo0a-stroke" data-item-order="0" transform="translate(1125, 369)"><g id="3_73qad1r0yo0a-stroke" fill="none" stroke-linecap="round" stroke-linejoin="round" stroke-miterlimit="4" stroke="#fb6762" stroke-width="2"><g><path d="M 35.625 22.5L 13.125 22.5C 12.375 22.5 11.875 22 11.875 21.25L 11.875 13.75C 11.875 13 12.375 12.5 13.125 12.5L 35.625 12.5C 36.375 12.5 36.875 13 36.875 13.75L 36.875 21.25C 36.875 21.75 36.375 22.5 35.625 22.5ZM 66.875 67.5L 44.375 67.5C 43.625 67.5 43.125 67 43.125 66.25L 43.125 58.75C 43.125 58 43.625 57.5 44.375 57.5L 66.875 57.5C 67.625 57.5 68.125 58 68.125 58.75L 68.125 66.25C 68.125 66.75 67.625 67.5 66.875 67.5ZM 66.875 38.75L 54.375 38.75C 53.625 38.75 53.125 38.25 53.125 37.5L 53.125 30C 53.125 29.25 53.625 28.75 54.375 28.75L 66.875 28.75C 67.625 28.75 68.125 29.25 68.125 30L 68.125 37.5C 68.125 38 67.625 38.75 66.875 38.75ZM 29.375 45L 16.875 45C 16.125 45 15.625 44.5 15.625 43.75L 15.625 36.25C 15.625 35.5 16.125 35 16.875 35L 29.375 35C 30.125 35 30.625 35.5 30.625 36.25L 30.625 43.75C 30.625 44.25 30.125 45 29.375 45ZM 36.875 17.5L 44.375 17.5C 45.125 17.5 45.625 18 45.625 18.75L 45.625 32.5C 45.625 33.25 46.125 33.75 46.875 33.75L 53.125 33.75M 43.125 62.5L 38.125 62.5C 37.375 62.5 36.875 62 36.875 61.25L 36.875 41.25C 36.875 40.5 36.375 40 35.625 40L 30.625 40"></path></g></g></g><g id="g-root-tx_selecion_1q9hmtx1qqs16p-stroke" data-item-order="0" transform="translate(39, 147)"></g><g id="g-root-tx_classifi_qrk2xh1qqs1zf-stroke" data-item-order="0" transform="translate(381, 123)"></g><g id="g-root-tx_processo_4ju3851qqrzsw-stroke" data-item-order="0" transform="translate(459, 39)"></g><g id="g-root-tx_avaliare_1uo0yj91r19wr2-stroke" data-item-order="0" transform="translate(879, 615)"></g><g id="g-root-tx_avaliarv_1cvhzv91r19wy3-stroke" data-item-order="0" transform="translate(561, 555)"></g><g id="g-root-tx_avaliarm_hu0f6d1r19ukl-stroke" data-item-order="0" transform="translate(885, 555)"></g><g id="g-root-tx_identifi_1hgid1r19urm-stroke" data-item-order="0" transform="translate(219, 615)"></g><g id="g-root-tx_analisar_zknyl11r19vd8-stroke" data-item-order="0" transform="translate(549, 615)"></g><g id="g-root-tx_marcarcn_dcbhsl1r19wch-stroke" data-item-order="0" transform="translate(213, 555)"></g></g></g></svg>